----------------- solo_girl_ 7 -------------------------

Video
Format                           : VP6 ---- Flash Video
Duration                         : 2mn 37s
Bit rate                         : 347 Kbps
Width                            : 640 pixels
Height                           : 480 pixels
Display aspect ratio             : 4/3
Frame rate                       : 30.000 fps
Bits/(Pixel*Frame)               : 0.038
Stream size                      : 6.64 MiB (83%)

Audio
Format                           : MPEG Audio
Format version                   : Version 2.5
Format profile                   : Layer 3
Duration                         : 2mn 37s
Bit rate mode                    : Constant
Bit rate                         : 64.0 Kbps
Channel(s)                       : 1 channel
Sampling rate                    : 11.025 KHz
Resolution                       : 16 bits
Video delay                      : 63ms
Stream size                      : 1.20 MiB (15%)